<svg width="13" height="12" viewBox="0 0 13 12" fill="none" xmlns="http://www.w3.org/2000/svg">
<path d="M6.74045 11.5321C9.91891 11.5321 12.4956 8.95364 12.4956 5.7729C12.4956 2.59217 9.91891 0.0136719 6.74045 0.0136719C3.562 0.0136719 0.985352 2.59217 0.985352 5.7729C0.985352 8.95364 3.562 11.5321 6.74045 11.5321Z" fill="url(#paint0_radial_387_13414)"/>
<g style="mix-blend-mode:screen" opacity="0.4">
<path d="M6.74045 11.5321C9.91891 11.5321 12.4956 8.95364 12.4956 5.7729C12.4956 2.59217 9.91891 0.0136719 6.74045 0.0136719C3.562 0.0136719 0.985352 2.59217 0.985352 5.7729C0.985352 8.95364 3.562 11.5321 6.74045 11.5321Z" fill="url(#paint1_radial_387_13414)"/>
</g>
<g style="mix-blend-mode:soft-light" opacity="0.4">
<path d="M6.74045 11.5321C9.91891 11.5321 12.4956 8.95364 12.4956 5.7729C12.4956 2.59217 9.91891 0.0136719 6.74045 0.0136719C3.562 0.0136719 0.985352 2.59217 0.985352 5.7729C0.985352 8.95364 3.562 11.5321 6.74045 11.5321Z" fill="#5685FF"/>
</g>
<defs>
<radialGradient id="paint0_radial_387_13414" cx="0" cy="0" r="1" gradientUnits="userSpaceOnUse" gradientTransform="translate(5.4726 3.27528) scale(8.55981 8.56595)">
<stop stop-color="white"/>
<stop offset="0.1769" stop-color="#F7F7F7"/>
<stop offset="0.4509" stop-color="#E1E1E1"/>
<stop offset="0.7742" stop-color="#BFBFBF"/>
<stop offset="0.8455" stop-color="#C6C6C6"/>
<stop offset="0.9482" stop-color="#D9D9D9"/>
<stop offset="1" stop-color="#E6E6E6"/>
</radialGradient>
<radialGradient id="paint1_radial_387_13414" cx="0" cy="0" r="1" gradientUnits="userSpaceOnUse" gradientTransform="translate(6.74088 5.77274) rotate(-45.0206) scale(5.75671 5.7567)">
<stop offset="0.6452"/>
<stop offset="0.7734" stop-color="#020202"/>
<stop offset="0.8196" stop-color="#090909"/>
<stop offset="0.8525" stop-color="#141414"/>
<stop offset="0.8791" stop-color="#252525"/>
<stop offset="0.9019" stop-color="#3B3B3B"/>
<stop offset="0.9221" stop-color="#575757"/>
<stop offset="0.9404" stop-color="#777777"/>
<stop offset="0.9572" stop-color="#9D9D9D"/>
<stop offset="0.9728" stop-color="#C8C8C8"/>
<stop offset="0.9867" stop-color="#F6F6F6"/>
<stop offset="0.9892" stop-color="white"/>
</radialGradient>
</defs>
</svg>
